<?xml version="1.0" encoding="UTF-8"?>
<svg width="250px" height="60px" viewBox="0 0 250 60" version="1.1" xmlns="http://www.w3.org/2000/svg" xmlns:xlink="http://www.w3.org/1999/xlink">
    <!-- Generator: Sketch 52.2 (67145) - http://www.bohemiancoding.com/sketch -->
    <title>Logo Offical</title>
    <desc>Created with Sketch.</desc>
    <defs>
        <polygon id="path-1" points="9.99685003e-05 0.321945621 79.1144677 0.321945621 79.1144677 59.3220339 9.99685003e-05 59.3220339"></polygon>
    </defs>
    <g id="Dental-Application" stroke="none" stroke-width="1" fill="none" fill-rule="evenodd">
        <g id="Login" transform="translate(-558.000000, -232.000000)">
            <g id="Group" transform="translate(-23.000000, -87.000000)">
                <g id="Logo-Offical" transform="translate(581.000000, 319.000000)">
                    <g id="Group-38">
                        <path d="M101.111455,22.4005895 C104.753849,22.4005895 107.210201,20.0338007 107.210201,16.5812673 L107.210201,16.5257289 C107.210201,13.0725852 104.753849,10.6502579 101.111455,10.6502579 L97.6718026,10.6502579 L97.6718026,22.4005895 L101.111455,22.4005895 Z M93.220339,8.92368609 C93.220339,7.72686481 94.2030062,6.77966102 95.4460708,6.77966102 L101.111455,6.77966102 C107.470598,6.77966102 111.864407,10.9840985 111.864407,16.4695802 L111.864407,16.5257289 C111.864407,22.0106003 107.470598,26.2711864 101.111455,26.2711864 L95.4460708,26.2711864 C94.2030062,26.2711864 93.220339,25.324593 93.220339,24.1271614 L93.220339,8.92368609 Z" id="Fill-1" fill="#FFFFFF"></path>
                        <path d="M115.254237,24.1270942 L115.254237,8.9231429 C115.254237,7.72628414 116.21635,6.77966102 117.433414,6.77966102 L128.414281,6.77966102 C129.489913,6.77966102 130.367042,7.64266881 130.367042,8.70098247 C130.367042,9.7586858 129.489913,10.5942287 128.414281,10.5942287 L119.584056,10.5942287 L119.584056,14.5485622 L127.140769,14.5485622 C128.2164,14.5485622 129.093529,15.41157 129.093529,16.4698836 C129.093529,17.527587 128.2164,18.3631299 127.140769,18.3631299 L119.584056,18.3631299 L119.584056,22.4566187 L128.555714,22.4566187 C129.631345,22.4566187 130.508475,23.3196265 130.508475,24.3779402 C130.508475,25.4362539 129.631345,26.2711864 128.555714,26.2711864 L117.433414,26.2711864 C116.21635,26.2711864 115.254237,25.3245633 115.254237,24.1270942" id="Fill-3" fill="#FFFFFF"></path>
                        <path d="M134.745763,9.0362087 C134.745763,7.80775516 135.718437,6.83663822 136.94886,6.83663822 L137.406663,6.83663822 C138.465253,6.83663822 139.094888,7.35068529 139.695676,8.12206896 L148.193247,19.2626774 L148.193247,8.95042983 C148.193247,7.75077796 149.165921,6.77966102 150.368124,6.77966102 C151.569699,6.77966102 152.542373,7.75077796 152.542373,8.95042983 L152.542373,24.8614703 C152.542373,26.0899238 151.569699,27.0616669 150.339276,27.0616669 L150.196291,27.0616669 C149.1377,27.0616669 148.508065,26.5469937 147.907277,25.77561 L139.094888,14.2349089 L139.094888,24.9472491 C139.094888,26.1475271 138.121587,27.1186441 136.920012,27.1186441 C135.718437,27.1186441 134.745763,26.1475271 134.745763,24.9472491 L134.745763,9.0362087 Z" id="Fill-5" fill="#FFFFFF"></path>
                        <path d="M161.354865,10.8706942 L157.117891,10.8706942 C156.000916,10.8706942 155.084746,9.94880683 155.084746,8.82549334 C155.084746,7.70154842 156.000916,6.77966102 157.117891,6.77966102 L170.000753,6.77966102 C171.117728,6.77966102 172.033898,7.70154842 172.033898,8.82549334 C172.033898,9.94880683 171.117728,10.8706942 170.000753,10.8706942 L165.763779,10.8706942 L165.763779,24.9004314 C165.763779,26.1392966 164.790504,27.1186441 163.559322,27.1186441 C162.32814,27.1186441 161.354865,26.1392966 161.354865,24.9004314 L161.354865,10.8706942 Z" id="Fill-7" fill="#FFFFFF"></path>
                        <path d="M184.465618,18.636866 L181.737741,12.0843473 L179.009248,18.636866 L184.465618,18.636866 Z M172.287267,24.1398874 L179.149803,8.50996364 C179.628183,7.43248809 180.499871,6.77966102 181.681026,6.77966102 L181.934395,6.77966102 C183.11555,6.77966102 183.959496,7.43248809 184.437877,8.50996364 L191.299796,24.1398874 C191.440967,24.4520009 191.525424,24.7355144 191.525424,25.0190278 C191.525424,26.1823035 190.625379,27.1186441 189.471965,27.1186441 C188.459722,27.1186441 187.784688,26.5223953 187.390764,25.6146548 L186.069054,22.4947631 L177.405812,22.4947631 L176.028003,25.7570333 C175.662436,26.6075737 174.931304,27.1186441 174.031259,27.1186441 C172.906202,27.1186441 172.033898,26.2109036 172.033898,25.0756062 C172.033898,24.7634927 172.146712,24.4520009 172.287267,24.1398874 Z" id="Fill-9" fill="#FFFFFF"></path>
                        <path d="M195.762712,8.99794253 C195.762712,7.75903893 196.724942,6.77966102 197.942155,6.77966102 C199.159367,6.77966102 200.121597,7.75903893 200.121597,8.99794253 L200.121597,23.0855772 L208.188575,23.0855772 C209.292255,23.0855772 210.169492,23.9784465 210.169492,25.1017949 C210.169492,26.2257747 209.292255,27.1186441 208.188575,27.1186441 L197.942155,27.1186441 C196.724942,27.1186441 195.762712,26.1392662 195.762712,24.9003626 L195.762712,8.99794253 Z" id="Fill-11" fill="#FFFFFF"></path>
                        <path d="M107.401701,48.0189587 L102.10413,36.4330493 L96.778163,48.0189587 L107.401701,48.0189587 Z M92.4883615,53.9975087 L101.096361,35.4605553 C101.298294,35.0316797 101.586047,34.7457627 102.10413,34.7457627 L102.161555,34.7457627 C102.680269,34.7457627 102.968022,35.0316797 103.169324,35.4605553 L111.748927,53.9404507 C111.835379,54.1122517 111.864407,54.2552102 111.864407,54.3981687 C111.864407,54.7699862 111.547625,55.0847458 111.144392,55.0847458 C110.798582,55.0847458 110.539856,54.8270442 110.39598,54.5122847 L108.034633,49.3632703 L96.1446001,49.3632703 L93.783884,54.5411272 C93.6400072,54.8847293 93.409678,55.0847458 93.0638688,55.0847458 C92.6896628,55.0847458 92.3728814,54.7988287 92.3728814,54.4552267 C92.3728814,54.3411107 92.4019091,54.1693097 92.4883615,53.9975087 Z" id="Fill-13" fill="#FFFFFF"></path>
                        <path d="M129.002461,47.4734135 L129.002461,47.4167395 C129.002461,43.6089884 126.359775,41.1657748 123.319099,41.1657748 C120.307072,41.1657748 117.409024,43.6943109 117.409024,47.388091 L117.409024,47.4453879 C117.409024,51.1671937 120.307072,53.6677041 123.319099,53.6677041 C126.473131,53.6677041 129.002461,51.3658644 129.002461,47.4734135 Z M116.101695,40.7678106 C116.101695,40.341198 116.385707,40.0572048 116.783698,40.0572048 C117.18169,40.0572048 117.49373,40.341198 117.49373,40.7678106 L117.49373,43.4103177 C118.744381,41.5064421 120.591707,39.8305085 123.461728,39.8305085 C126.956451,39.8305085 130.508475,42.6430378 130.508475,47.3600654 L130.508475,47.4167395 C130.508475,52.1331443 126.956451,55.0029704 123.461728,55.0029704 C120.563057,55.0029704 118.687703,53.3550625 117.49373,51.5365094 L117.49373,58.6120509 C117.49373,59.0380407 117.209717,59.3220339 116.812349,59.3220339 C116.414358,59.3220339 116.101695,59.0380407 116.101695,58.6120509 L116.101695,40.7678106 Z" id="Fill-15" fill="#FFFFFF"></path>
                        <path d="M147.646529,47.4734135 L147.646529,47.4167395 C147.646529,43.6089884 145.003843,41.1657748 141.963166,41.1657748 C138.95114,41.1657748 136.053092,43.6943109 136.053092,47.388091 L136.053092,47.4453879 C136.053092,51.1671937 138.95114,53.6677041 141.963166,53.6677041 C145.117199,53.6677041 147.646529,51.3658644 147.646529,47.4734135 Z M134.745763,40.7678106 C134.745763,40.341198 135.029775,40.0572048 135.427766,40.0572048 C135.825757,40.0572048 136.137797,40.341198 136.137797,40.7678106 L136.137797,43.4103177 C137.388449,41.5064421 139.235775,39.8305085 142.105795,39.8305085 C145.600518,39.8305085 149.152542,42.6430378 149.152542,47.3600654 L149.152542,47.4167395 C149.152542,52.1331443 145.600518,55.0029704 142.105795,55.0029704 C139.207125,55.0029704 137.331771,53.3550625 136.137797,51.5365094 L136.137797,58.6120509 C136.137797,59.0380407 135.853785,59.3220339 135.456417,59.3220339 C135.058426,59.3220339 134.745763,59.0380407 134.745763,58.6120509 L134.745763,40.7678106 Z" id="Fill-17" fill="#FFFFFF"></path>
                        <path d="M154.237288,34.6162442 C154.237288,34.2141731 154.583096,33.8983051 155.067683,33.8983051 C155.551511,33.8983051 155.932203,34.2141731 155.932203,34.6162442 L155.932203,54.3668066 C155.932203,54.7971926 155.586395,55.0847458 155.102567,55.0847458 C154.617981,55.0847458 154.237288,54.7971926 154.237288,54.3668066 L154.237288,34.6162442 Z" id="Fill-19" fill="#FFFFFF"></path>
                        <path d="M161.183822,40.2912832 C161.183822,39.8950934 161.461537,39.5838457 161.850704,39.5838457 C162.239261,39.5838457 162.544992,39.8665727 162.544992,40.2912832 L162.544992,53.5298506 C162.544992,53.9539411 162.267277,54.2372881 161.878719,54.2372881 C161.489552,54.2372881 161.183822,53.9539411 161.183822,53.5298506 L161.183822,40.2912832 Z M161.016949,34.7471061 C161.016949,34.2659742 161.378101,33.8983051 161.850704,33.8983051 C162.323307,33.8983051 162.711864,34.2659742 162.711864,34.7471061 L162.711864,35.227618 C162.711864,35.7087499 162.323307,36.076419 161.850704,36.076419 C161.378101,36.076419 161.016949,35.7087499 161.016949,35.227618 L161.016949,34.7471061 Z" id="Fill-21" fill="#FFFFFF"></path>
                        <path d="M166.949153,47.5146067 L166.949153,47.4576271 C166.949153,43.3726323 170.287632,39.8305085 174.563273,39.8305085 C177.140468,39.8305085 178.838914,40.9156244 180.186245,42.1441283 C180.303711,42.2580874 180.391008,42.458455 180.391008,42.6581965 C180.391008,43.0583056 180.068779,43.3726323 179.659252,43.3726323 C179.483373,43.3726323 179.27861,43.3150266 179.161144,43.2010675 C177.960806,42.0871488 176.555063,41.1441687 174.534388,41.1441687 C171.136855,41.1441687 168.501247,43.9148772 168.501247,47.4006476 L168.501247,47.4576271 C168.501247,50.9715742 171.224794,53.7710856 174.651212,53.7710856 C176.583948,53.7710856 178.136684,52.8569083 179.337022,51.6853839 C179.453846,51.5714248 179.600198,51.4568396 179.805603,51.4568396 C180.15736,51.4568396 180.508475,51.7999691 180.508475,52.1424725 C180.508475,52.2852344 180.450062,52.4567992 180.332596,52.5713844 C178.838914,54.0566094 177.111583,55.0847458 174.563273,55.0847458 C170.258747,55.0847458 166.949153,51.5996015 166.949153,47.5146067" id="Fill-23" fill="#FFFFFF"></path>
                        <path d="M194.404458,49.2419458 L194.404458,47.5727546 C193.162083,47.2560751 191.515714,46.911008 189.406463,46.911008 C186.286595,46.911008 184.552842,48.2925381 184.552842,50.3358149 L184.552842,50.3932209 C184.552842,52.5229221 186.575342,53.7606217 188.828968,53.7606217 C191.832957,53.7606217 194.404458,51.9185815 194.404458,49.2419458 M183.050847,50.4796454 L183.050847,50.4222393 C183.050847,47.371518 185.679971,45.64429 189.493214,45.64429 C191.544209,45.64429 192.960086,45.9035635 194.375963,46.277649 L194.375963,45.64429 C194.375963,42.6799932 192.555459,41.1546325 189.522342,41.1546325 C187.904468,41.1546325 186.546214,41.5577365 185.332967,42.1330587 C185.217722,42.1904647 185.101843,42.2194831 185.015092,42.2194831 C184.668721,42.2194831 184.350845,41.9028036 184.350845,41.5577365 C184.350845,41.2120386 184.611098,40.9817836 184.755472,40.9243775 C186.257467,40.2626309 187.730967,39.8305085 189.609093,39.8305085 C191.602465,39.8305085 193.191211,40.377443 194.260084,41.4422936 C195.242206,42.4207197 195.762712,43.7738622 195.762712,45.5868839 L195.762712,54.1347072 C195.762712,54.5661988 195.473331,54.8544907 195.068704,54.8544907 C194.664711,54.8544907 194.375963,54.5661988 194.375963,54.1347072 L194.375963,52.2926671 C193.364713,53.7032156 191.544209,55.0847458 188.742217,55.0847458 C185.997847,55.0847458 183.050847,53.5303667 183.050847,50.4796454" id="Fill-25" fill="#FFFFFF"></path>
                        <path d="M201.285118,51.1070995 L201.285118,41.6172962 L199.78111,41.6172962 C199.453344,41.6172962 199.152542,41.3046645 199.152542,40.9633853 C199.152542,40.6227289 199.453344,40.338122 199.78111,40.338122 L201.285118,40.338122 L201.285118,36.3038035 C201.285118,35.905852 201.558356,35.5932203 201.941249,35.5932203 C202.323543,35.5932203 202.624344,35.905852 202.624344,36.3038035 L202.624344,40.338122 L206.998551,40.338122 C207.326916,40.338122 207.627119,40.6507537 207.627119,40.9920328 C207.627119,41.3326893 207.326916,41.6172962 206.998551,41.6172962 L202.624344,41.6172962 L202.624344,50.9651074 C202.624344,53.038939 203.799987,53.7781696 205.413051,53.7781696 C206.369984,53.7781696 206.807404,53.4935627 206.998551,53.4935627 C207.299353,53.4935627 207.600154,53.7781696 207.600154,54.118826 C207.600154,54.4028102 207.435972,54.6020973 207.162734,54.7154418 C206.615658,54.9141062 205.987091,55.0847458 205.194341,55.0847458 C203.034801,55.0847458 201.285118,53.8628666 201.285118,51.1070995" id="Fill-27" fill="#FFFFFF"></path>
                        <path d="M212.031279,40.2912832 C212.031279,39.8950934 212.308995,39.5838457 212.698161,39.5838457 C213.086719,39.5838457 213.392449,39.8665727 213.392449,40.2912832 L213.392449,53.5298506 C213.392449,53.9539411 213.114734,54.2372881 212.726176,54.2372881 C212.33701,54.2372881 212.031279,53.9539411 212.031279,53.5298506 L212.031279,40.2912832 Z M211.864407,34.7471061 C211.864407,34.2659742 212.225558,33.8983051 212.698161,33.8983051 C213.170764,33.8983051 213.559322,34.2659742 213.559322,34.7471061 L213.559322,35.227618 C213.559322,35.7087499 213.170764,36.076419 212.698161,36.076419 C212.225558,36.076419 211.864407,35.7087499 211.864407,35.227618 L211.864407,34.7471061 Z" id="Fill-29" fill="#FFFFFF"></path>
                        <path d="M231.508005,47.5146067 L231.508005,47.4576271 C231.508005,43.94368 228.830043,41.1441687 225.394697,41.1441687 C221.872574,41.1441687 219.340091,43.9724828 219.340091,47.4006476 L219.340091,47.4576271 C219.340091,50.9715742 222.018053,53.7710856 225.452761,53.7710856 C228.975522,53.7710856 231.508005,50.9427714 231.508005,47.5146067 M217.79661,47.5146067 L217.79661,47.4576271 C217.79661,43.3726323 221.028413,39.8305085 225.452761,39.8305085 C229.849034,39.8305085 233.050847,43.3150266 233.050847,47.4006476 L233.050847,47.4576271 C233.050847,51.5426219 229.819683,55.0847458 225.394697,55.0847458 C220.999062,55.0847458 217.79661,51.5996015 217.79661,47.5146067" id="Fill-31" fill="#FFFFFF"></path>
                        <path d="M237.288136,40.787156 C237.288136,40.3809781 237.578882,40.0618837 237.986309,40.0618837 C238.393099,40.0618837 238.713175,40.3517384 238.713175,40.787156 L238.713175,42.9330975 C239.702733,41.1933339 241.360497,39.8305085 244.065841,39.8305085 C247.818765,39.8305085 250,42.3819923 250,45.919999 L250,54.3594735 C250,54.7942555 249.709254,55.0847458 249.301826,55.0847458 C248.895036,55.0847458 248.57496,54.7942555 248.57496,54.3594735 L248.57496,46.1812496 C248.57496,43.1358687 246.858537,41.1348545 243.862446,41.1348545 C240.953708,41.1348545 238.713175,43.3392754 238.713175,46.4132604 L238.713175,54.3594735 C238.713175,54.7942555 238.422429,55.0847458 238.015639,55.0847458 C237.607574,55.0847458 237.288136,54.7942555 237.288136,54.3594735 L237.288136,40.787156 Z" id="Fill-33" fill="#FFFFFF"></path>
                        <g id="Group-37">
                            <mask id="mask-2" fill="white">
                                <use xlink:href="#path-1"></use>
                            </mask>
                            <g id="Clip-36"></g>
                            <path d="M71.8099258,25.1530367 C72.3040731,25.3878531 72.8579661,25.5194739 73.4429767,25.5194739 C75.533456,25.5194739 77.2299868,23.8349753 77.2299868,21.7580862 C77.2299868,19.681197 75.533456,17.9973164 73.4429767,17.9973164 C71.3506303,17.9973164 69.6553443,19.681197 69.6553443,21.7580862 C69.6553443,21.938524 69.6677913,22.1152542 69.692063,22.2888948 C67.1497564,24.0858581 64.4207442,25.7450212 61.6537685,27.2466102 C61.3438374,27.4122175 61.0401298,27.5734993 60.7426457,27.7298376 L60.7407786,27.7347811 C58.4791525,28.9298729 56.20259,30.0192973 53.9895074,30.9906956 C53.1617797,31.354661 52.3135143,31.7143008 51.4515572,32.0671434 C48.2769412,33.3641949 49.7575159,36.584887 52.8636732,35.3181144 C53.7430561,34.9603284 54.6274179,34.586476 55.5136467,34.1971751 C56.880331,33.5965395 58.2158978,32.9767479 59.5153681,32.3402719 C58.8332707,35.4392302 58.3889115,39.0350106 58.3615281,44.4852225 C58.3478363,47.3462747 56.5679105,55.308404 53.3932945,55.7625883 C48.0734322,56.6629237 46.9563109,37.1991172 40.4925662,37.2522599 C35.6095948,37.4821328 33.3417452,54.8591631 28.5415466,55.0105579 C23.3685593,54.6076624 24.5348464,43.6015713 23.8639513,39.3266773 C23.6442611,37.927666 23.3710487,36.6973517 23.0648517,35.5788842 C29.8721345,35.1024541 38.2097802,33.2467867 46.846777,30.042779 C53.0846081,27.7286017 58.7119121,24.9960805 63.3770604,22.1344103 C64.6298543,21.3780544 65.567116,20.755173 66.4657918,20.128584 L66.4670365,20.1254944 C70.3100583,17.4683616 73.2805429,14.75994 75.1096345,12.224541 C75.1818273,12.2282486 75.2533978,12.2307203 75.3262129,12.2307203 C77.4173146,12.2307203 79.1144677,10.5462218 79.1144677,8.46995056 C79.1144677,6.39367938 77.4173146,4.70979873 75.3262129,4.70979873 C73.2351112,4.70979873 71.5392029,6.39367938 71.5392029,8.46995056 C71.5392029,9.13485169 71.712839,9.75896893 72.017169,10.3009004 C70.8166525,11.9551201 69.1475053,13.5092338 67.6383024,14.7580862 C61.4608395,19.8684322 53.0920763,23.9431144 45.5168114,26.7534958 C37.9589725,29.5570798 28.9311388,31.941084 20.7851774,32.1592161 L20.7938904,32.1845516 C19.9313109,32.2271893 19.0500609,32.2580862 18.1719227,32.2735346 C19.1471478,34.7965749 19.9095286,37.0508121 20.3520207,39.8704626 C20.4914274,40.7633828 20.5194333,41.7489936 20.5573967,42.6518008 C20.6146531,44.0032309 20.6594624,45.3534251 20.7553046,46.7036194 C21.0254052,50.4786017 21.7025238,55.3782309 25.2499285,57.5595516 C26.1666525,58.1224929 27.1897987,58.4456744 28.2627331,58.529714 L28.4587738,58.5445445 L28.6541923,58.5377472 C33.8165996,58.3758475 36.1983395,51.3962394 37.8027622,47.4315501 C38.2489883,46.329149 39.7227172,42.5801201 40.789428,41.1125177 C41.9488692,42.4243997 43.4512262,46.4669492 43.8532654,47.5508121 C45.3021001,51.4506179 47.2313904,58.271416 51.9425927,59.2131532 C52.6029078,59.3460099 53.2800265,59.3565148 53.9440757,59.2496116 C57.7908316,58.6693679 59.7263453,54.5118821 60.7364221,51.2232168 C61.3569068,49.2007062 61.905821,46.6232874 61.916401,44.5019068 C61.9406727,39.4823976 62.3296425,35.1698093 63.6838798,30.3381532 L63.7361573,30.1540078 C66.6805032,28.5393362 69.3883554,26.8554555 71.8099258,25.1530367 M60.9442876,2.18737641 C64.2769809,4.22904308 65.9610646,7.57023305 66.6027092,11.2463453 L66.4396531,11.2624117 C66.0046292,11.6646893 65.5359984,12.0601695 64.9721478,12.4921081 C59.5022987,16.8423905 51.1192214,21.1420021 41.2879317,24.2700035 C29.5559799,28.0023482 18.5260408,29.1894068 11.3391234,27.9387006 C10.6445789,28.7370763 9.61707627,29.2431674 8.47070445,29.2431674 C6.3789804,29.2431674 4.68307203,27.5592867 4.68307203,25.4830155 C4.68307203,23.4055085 6.3789804,21.7216278 8.47070445,21.7216278 C10.2195127,21.7216278 11.6913745,22.8994174 12.1270207,24.4986405 C13.3374947,24.6982345 14.5747299,24.8014301 15.7167452,24.8514831 L15.7136335,24.8354167 C16.9259746,24.8836158 18.1644544,24.8885593 19.3512791,24.8539548 L19.3525238,24.8607521 C26.3216181,24.6166667 33.7811255,22.9519421 40.2025503,20.9090395 C47.6365413,18.5435734 55.9051059,14.9632415 62.1317346,10.2205685 C62.2823438,10.1056321 62.4354423,9.98822387 62.5885408,9.86772599 C60.6368459,4.2407839 55.273419,2.10024718 47.9925265,6.44187853 C44.339322,8.62134534 38.8321319,11.8890007 33.1967373,11.528125 C31.1815625,11.4045374 30.6040201,8.56943856 32.9571319,8.19002472 C36.9700556,8.15850989 39.4040731,7.13953037 43.2794571,5.18252119 C40.9282124,5.77512359 37.897982,6.09459746 36.0987632,5.86225282 C32.2793909,5.36975636 29.4203072,3.7167726 26.3272193,3.86013418 C21.504616,4.08444562 18.03625,6.88493997 18.3934799,17.5857698 C21.5656065,17.514089 24.836687,17.1593927 28.0610911,16.6156073 C31.6526827,16.0087924 32.2818803,19.4890184 28.3822246,20.1273482 C18.4233528,21.7624117 9.94630032,21.3650777 5.29733316,19.0712924 C4.79136123,19.2900424 4.23,19.4018891 3.6412553,19.3790254 C1.55139831,19.2993114 -0.0779184322,17.5517832 0.00298728814,15.4761299 C0.0832706568,13.4010946 1.8426589,11.7833333 3.93438294,11.8642832 C6.02237288,11.9433792 7.65355667,13.6921434 7.5720286,15.7665607 C7.56642744,15.9142479 7.55211335,16.0600812 7.52846398,16.2028249 C9.6450821,17.0605226 12.3006568,17.3935911 14.5336547,17.5233581 L14.8361176,17.5400424 C14.5921557,9.39500353 16.4137791,0.788365113 26.1610514,0.334798729 C26.6377728,0.312552966 27.1169836,0.319350282 27.5930826,0.352718927 C30.1017823,0.525741525 32.3391367,1.4149541 34.7351907,2.05019421 C37.1032389,2.67801907 39.1850053,2.87328743 41.6165334,2.42775424 C47.4753522,1.35377825 55.5852172,-1.09325565 60.9442876,2.18737641" id="Fill-35" fill="#FFFFFF" mask="url(#mask-2)"></path>
                        </g>
                    </g>
                </g>
            </g>
        </g>
    </g>
</svg>