<?xml version="1.0" encoding="UTF-8"?>
<svg width="127px" height="30px" viewBox="0 0 127 30" version="1.1" xmlns="http://www.w3.org/2000/svg" xmlns:xlink="http://www.w3.org/1999/xlink">
    <!-- Generator: Sketch 52.2 (67145) - http://www.bohemiancoding.com/sketch -->
    <title>Group 38</title>
    <desc>Created with Sketch.</desc>
    <defs>
        <polygon id="path-1" points="5.05295329e-05 0.160972811 39.9887673 0.160972811 39.9887673 29.6610169 5.05295329e-05 29.6610169"></polygon>
    </defs>
    <g id="Symbols" stroke="none" stroke-width="1" fill="none" fill-rule="evenodd">
        <g id="Logo-Blue">
            <g id="Group-38">
                <path d="M51.1072444,11.2002948 C52.9483093,11.2002948 54.1898833,10.0169003 54.1898833,8.29063363 L54.1898833,8.26286444 C54.1898833,6.53629258 52.9483093,5.32512897 51.1072444,5.32512897 L49.3686566,5.32512897 L49.3686566,11.2002948 L51.1072444,11.2002948 Z M47.1186441,4.46184305 C47.1186441,3.8634324 47.6153377,3.38983051 48.2436503,3.38983051 L51.1072444,3.38983051 C54.3215023,3.38983051 56.5423729,5.49204923 56.5423729,8.2347901 L56.5423729,8.26286444 C56.5423729,11.0053002 54.3215023,13.1355932 51.1072444,13.1355932 L48.2436503,13.1355932 C47.6153377,13.1355932 47.1186441,12.6622965 47.1186441,12.0635807 L47.1186441,4.46184305 Z" id="Fill-1" fill="#24ACFF"></path>
                <path d="M58.2557781,12.0635471 L58.2557781,4.46157145 C58.2557781,3.86314207 58.7420825,3.38983051 59.3572529,3.38983051 L64.9075822,3.38983051 C65.4512649,3.38983051 65.894614,3.82133441 65.894614,4.35049124 C65.894614,4.8793429 65.4512649,5.29711436 64.9075822,5.29711436 L60.4443048,5.29711436 L60.4443048,7.27428108 L64.2638795,7.27428108 C64.8075622,7.27428108 65.2509113,7.70578498 65.2509113,8.23494181 C65.2509113,8.76379348 64.8075622,9.18156493 64.2638795,9.18156493 L60.4443048,9.18156493 L60.4443048,11.2283094 L64.9790699,11.2283094 C65.5227526,11.2283094 65.9661017,11.6598133 65.9661017,12.1889701 C65.9661017,12.7181269 65.5227526,13.1355932 64.9790699,13.1355932 L59.3572529,13.1355932 C58.7420825,13.1355932 58.2557781,12.6622817 58.2557781,12.0635471" id="Fill-3" fill="#24ACFF"></path>
                <path d="M68.1078582,4.51810435 C68.1078582,3.90387758 68.5995007,3.41831911 69.2214237,3.41831911 L69.4528222,3.41831911 C69.9878915,3.41831911 70.3061436,3.67534265 70.6098145,4.06103448 L74.9049504,9.63133871 L74.9049504,4.47521492 C74.9049504,3.87538898 75.3965928,3.38983051 76.0042515,3.38983051 C76.6115933,3.38983051 77.1032357,3.87538898 77.1032357,4.47521492 L77.1032357,12.4307351 C77.1032357,13.0449619 76.6115933,13.5308334 75.9896703,13.5308334 L75.9173979,13.5308334 C75.3823285,13.5308334 75.0640764,13.2734968 74.7604056,12.887805 L70.3061436,7.11745443 L70.3061436,12.4736246 C70.3061436,13.0737636 69.8141842,13.559322 69.2068424,13.559322 C68.5995007,13.559322 68.1078582,13.0737636 68.1078582,12.4736246 L68.1078582,4.51810435 Z" id="Fill-5" fill="#24ACFF"></path>
                <path d="M81.5575502,5.43534712 L79.4159522,5.43534712 C78.8513722,5.43534712 78.3882897,4.97440342 78.3882897,4.41274667 C78.3882897,3.85077421 78.8513722,3.38983051 79.4159522,3.38983051 L85.9276533,3.38983051 C86.4922334,3.38983051 86.9553159,3.85077421 86.9553159,4.41274667 C86.9553159,4.97440342 86.4922334,5.43534712 85.9276533,5.43534712 L83.7860554,5.43534712 L83.7860554,12.4502157 C83.7860554,13.0696483 83.2941095,13.559322 82.6718028,13.559322 C82.049496,13.559322 81.5575502,13.0696483 81.5575502,12.4502157 L81.5575502,5.43534712 Z" id="Fill-7" fill="#24ACFF"></path>
                <path d="M93.2389849,9.31843299 L91.8601673,6.04217367 L90.4810381,9.31843299 L93.2389849,9.31843299 Z M87.0833823,12.0699437 L90.5520823,4.25498182 C90.7938817,3.71624405 91.2344802,3.38983051 91.8315004,3.38983051 L91.9595668,3.38983051 C92.5565871,3.38983051 92.9831636,3.71624405 93.224963,4.25498182 L96.6933514,12.0699437 C96.7647072,12.2260004 96.807396,12.3677572 96.807396,12.5095139 C96.807396,13.0911518 96.3524641,13.559322 95.7694657,13.559322 C95.2578231,13.559322 94.9166242,13.2611977 94.7175136,12.8073274 L94.0494492,11.2473816 L89.6705738,11.2473816 L88.9741541,12.8785167 C88.789377,13.3037869 88.4198227,13.559322 87.9648908,13.559322 C87.3962259,13.559322 86.9553159,13.1054518 86.9553159,12.5378031 C86.9553159,12.3817463 87.0123382,12.2260004 87.0833823,12.0699437 Z" id="Fill-9" fill="#24ACFF"></path>
                <path d="M98.9491525,4.49897126 C98.9491525,3.87951947 99.4355163,3.38983051 100.050762,3.38983051 C100.666007,3.38983051 101.152371,3.87951947 101.152371,4.49897126 L101.152371,11.5427886 L105.229861,11.5427886 C105.787722,11.5427886 106.231125,11.9892233 106.231125,12.5508974 C106.231125,13.1128874 105.787722,13.559322 105.229861,13.559322 L100.050762,13.559322 C99.4355163,13.559322 98.9491525,13.0696331 98.9491525,12.4501813 L98.9491525,4.49897126 Z" id="Fill-11" fill="#24ACFF"></path>
                <path d="M54.2866778,24.0094794 L51.6089967,18.2165247 L48.9169624,24.0094794 L54.2866778,24.0094794 Z M46.7486627,26.9987543 L51.0996153,17.7302776 C51.201683,17.5158399 51.3471294,17.3728814 51.6089967,17.3728814 L51.6380222,17.3728814 C51.9002085,17.3728814 52.0456549,17.5158399 52.1474036,17.7302776 L56.4840029,26.9702253 C56.5277007,27.0561258 56.5423729,27.1276051 56.5423729,27.1990844 C56.5423729,27.3849931 56.3822543,27.5423729 56.1784379,27.5423729 C56.0036471,27.5423729 55.8728729,27.4135221 55.8001497,27.2561424 L54.6065961,24.6816352 L48.5967251,24.6816352 L47.4034905,27.2705636 C47.3307673,27.4423646 47.2143464,27.5423729 47.0395555,27.5423729 C46.8504114,27.5423729 46.6902928,27.3994144 46.6902928,27.2276134 C46.6902928,27.1705554 46.704965,27.0846548 46.7486627,26.9987543 Z" id="Fill-13" fill="#24ACFF"></path>
                <path d="M65.2048804,23.7367068 L65.2048804,23.7083697 C65.2048804,21.8044942 63.8691229,20.5828874 62.3321989,20.5828874 C60.8097564,20.5828874 59.3449249,21.8471554 59.3449249,23.6940455 L59.3449249,23.7226939 C59.3449249,25.5835968 60.8097564,26.8338521 62.3321989,26.8338521 C63.9264191,26.8338521 65.2048804,25.6829322 65.2048804,23.7367068 Z M58.6841294,20.3839053 C58.6841294,20.170599 58.8276848,20.0286024 59.0288512,20.0286024 C59.2300176,20.0286024 59.3877397,20.170599 59.3877397,20.3839053 L59.3877397,21.7051588 C60.019887,20.7532211 60.9536266,19.9152542 62.4042914,19.9152542 C64.1707151,19.9152542 65.9661017,21.3215189 65.9661017,23.6800327 L65.9661017,23.7083697 C65.9661017,26.0665721 64.1707151,27.5014852 62.4042914,27.5014852 C60.9391451,27.5014852 59.9912389,26.6775312 59.3877397,25.7682547 L59.3877397,29.3060254 C59.3877397,29.5190203 59.2441843,29.6610169 59.0433327,29.6610169 C58.8421663,29.6610169 58.6841294,29.5190203 58.6841294,29.3060254 L58.6841294,20.3839053 Z" id="Fill-15" fill="#24ACFF"></path>
                <path d="M74.6286092,23.7367068 L74.6286092,23.7083697 C74.6286092,21.8044942 73.2928517,20.5828874 71.7559277,20.5828874 C70.2334852,20.5828874 68.7686537,21.8471554 68.7686537,23.6940455 L68.7686537,23.7226939 C68.7686537,25.5835968 70.2334852,26.8338521 71.7559277,26.8338521 C73.3501479,26.8338521 74.6286092,25.6829322 74.6286092,23.7367068 Z M68.1078582,20.3839053 C68.1078582,20.170599 68.2514136,20.0286024 68.45258,20.0286024 C68.6537464,20.0286024 68.8114685,20.170599 68.8114685,20.3839053 L68.8114685,21.7051588 C69.4436158,20.7532211 70.3773554,19.9152542 71.8280202,19.9152542 C73.5944439,19.9152542 75.3898305,21.3215189 75.3898305,23.6800327 L75.3898305,23.7083697 C75.3898305,26.0665721 73.5944439,27.5014852 71.8280202,27.5014852 C70.3628739,27.5014852 69.4149677,26.6775312 68.8114685,25.7682547 L68.8114685,29.3060254 C68.8114685,29.5190203 68.6679131,29.6610169 68.4670615,29.6610169 C68.2658951,29.6610169 68.1078582,29.5190203 68.1078582,29.3060254 L68.1078582,20.3839053 Z" id="Fill-17" fill="#24ACFF"></path>
                <path d="M77.9599384,17.3081221 C77.9599384,17.1070866 78.1347287,16.9491525 78.3796652,16.9491525 C78.6242183,16.9491525 78.816641,17.1070866 78.816641,17.3081221 L78.816641,27.1834033 C78.816641,27.3985963 78.6418507,27.5423729 78.3972975,27.5423729 C78.1523611,27.5423729 77.9599384,27.3985963 77.9599384,27.1834033 L77.9599384,17.3081221 Z" id="Fill-19" fill="#24ACFF"></path>
                <path d="M81.4710954,20.1456416 C81.4710954,19.9475467 81.6114678,19.7919229 81.8081739,19.7919229 C82.0045721,19.7919229 82.1591049,19.9332863 82.1591049,20.1456416 L82.1591049,26.7649253 C82.1591049,26.9769706 82.0187325,27.1186441 81.8223343,27.1186441 C81.6256282,27.1186441 81.4710954,26.9769706 81.4710954,26.7649253 L81.4710954,20.1456416 Z M81.3867488,17.373553 C81.3867488,17.1329871 81.5692945,16.9491525 81.8081739,16.9491525 C82.0470532,16.9491525 82.2434515,17.1329871 82.2434515,17.373553 L82.2434515,17.613809 C82.2434515,17.8543749 82.0470532,18.0382095 81.8081739,18.0382095 C81.5692945,18.0382095 81.3867488,17.8543749 81.3867488,17.613809 L81.3867488,17.373553 Z" id="Fill-21" fill="#24ACFF"></path>
                <path d="M84.385208,23.7573033 L84.385208,23.7288136 C84.385208,21.6863161 86.0726575,19.9152542 88.2337997,19.9152542 C89.5364549,19.9152542 90.394942,20.4578122 91.0759565,21.0720642 C91.1353303,21.1290437 91.1794551,21.2292275 91.1794551,21.3290982 C91.1794551,21.5291528 91.0165827,21.6863161 90.8095854,21.6863161 C90.7206869,21.6863161 90.6171883,21.6575133 90.5578145,21.6005338 C89.9510983,21.0435744 89.2405592,20.5720843 88.2191996,20.5720843 C86.501901,20.5720843 85.1697211,21.9574386 85.1697211,23.7003238 L85.1697211,23.7288136 C85.1697211,25.4857871 86.5463503,26.8855428 88.278249,26.8855428 C89.2551593,26.8855428 90.0399969,26.4284541 90.646713,25.8426919 C90.7057624,25.7857124 90.7797363,25.7284198 90.8835594,25.7284198 C91.0613564,25.7284198 91.238829,25.8999846 91.238829,26.0712363 C91.238829,26.1426172 91.2093043,26.2283996 91.1499305,26.2856922 C90.394942,27.0283047 89.5218548,27.5423729 88.2337997,27.5423729 C86.0580574,27.5423729 84.385208,25.7998007 84.385208,23.7573033" id="Fill-23" fill="#24ACFF"></path>
                <path d="M98.2626169,24.6209729 L98.2626169,23.7863773 C97.6346528,23.6280376 96.8024884,23.455504 95.7363577,23.455504 C94.1594061,23.455504 93.2830729,24.1462691 93.2830729,25.1679074 L93.2830729,25.1966104 C93.2830729,26.2614611 94.3053549,26.8803108 95.44446,26.8803108 C96.96284,26.8803108 98.2626169,25.9592908 98.2626169,24.6209729 M92.5238829,25.2398227 L92.5238829,25.2111197 C92.5238829,23.685759 93.8527855,22.822145 95.7802064,22.822145 C96.8168912,22.822145 97.5325526,22.9517817 98.248214,23.1388245 L98.248214,22.822145 C98.248214,21.3399966 97.3280322,20.5773163 95.7949293,20.5773163 C94.9771677,20.5773163 94.290632,20.7788683 93.6773908,21.0665293 C93.6191393,21.0952324 93.5605677,21.1097416 93.5167191,21.1097416 C93.3416445,21.1097416 93.1809727,20.9514018 93.1809727,20.7788683 C93.1809727,20.6060193 93.3125187,20.4908918 93.3854932,20.4621888 C94.1446832,20.1313155 94.8894703,19.9152542 95.8387779,19.9152542 C96.846337,19.9152542 97.6493757,20.1887215 98.1896425,20.7211468 C98.6860606,21.2103599 98.9491525,21.8869311 98.9491525,22.793442 L98.9491525,27.0673536 C98.9491525,27.2830994 98.8028836,27.4272454 98.5983632,27.4272454 C98.3941629,27.4272454 98.248214,27.2830994 98.248214,27.0673536 L98.248214,26.1463335 C97.737073,26.8516078 96.8168912,27.5423729 95.4006113,27.5423729 C94.0134572,27.5423729 92.5238829,26.7651833 92.5238829,25.2398227" id="Fill-25" fill="#24ACFF"></path>
                <path d="M101.740478,25.5535497 L101.740478,20.8086481 L100.98027,20.8086481 C100.814599,20.8086481 100.662558,20.6523323 100.662558,20.4816927 C100.662558,20.3113645 100.814599,20.169061 100.98027,20.169061 L101.740478,20.169061 L101.740478,18.1519017 C101.740478,17.952926 101.878587,17.7966102 102.072122,17.7966102 C102.265354,17.7966102 102.417396,17.952926 102.417396,18.1519017 L102.417396,20.169061 L104.628359,20.169061 C104.794332,20.169061 104.946071,20.3253768 104.946071,20.4960164 C104.946071,20.6663446 104.794332,20.8086481 104.628359,20.8086481 L102.417396,20.8086481 L102.417396,25.4825537 C102.417396,26.5194695 103.01163,26.8890848 103.82696,26.8890848 C104.310646,26.8890848 104.531743,26.7467814 104.628359,26.7467814 C104.7804,26.7467814 104.932442,26.8890848 104.932442,27.059413 C104.932442,27.2014051 104.849455,27.3010486 104.711345,27.3577209 C104.434824,27.4570531 104.117111,27.5423729 103.716412,27.5423729 C102.624863,27.5423729 101.740478,26.9314333 101.740478,25.5535497" id="Fill-27" fill="#24ACFF"></path>
                <path d="M107.172174,20.1456416 C107.172174,19.9475467 107.312546,19.7919229 107.509252,19.7919229 C107.705651,19.7919229 107.860183,19.9332863 107.860183,20.1456416 L107.860183,26.7649253 C107.860183,26.9769706 107.719811,27.1186441 107.523413,27.1186441 C107.326707,27.1186441 107.172174,26.9769706 107.172174,26.7649253 L107.172174,20.1456416 Z M107.087827,17.373553 C107.087827,17.1329871 107.270373,16.9491525 107.509252,16.9491525 C107.748132,16.9491525 107.94453,17.1329871 107.94453,17.373553 L107.94453,17.613809 C107.94453,17.8543749 107.748132,18.0382095 107.509252,18.0382095 C107.270373,18.0382095 107.087827,17.8543749 107.087827,17.613809 L107.087827,17.373553 Z" id="Fill-29" fill="#24ACFF"></path>
                <path d="M117.016773,23.7573033 L117.016773,23.7288136 C117.016773,21.97184 115.663185,20.5720843 113.926774,20.5720843 C112.146501,20.5720843 110.866446,21.9862414 110.866446,23.7003238 L110.866446,23.7288136 C110.866446,25.4857871 112.220034,26.8855428 113.956123,26.8855428 C115.736718,26.8855428 117.016773,25.4713857 117.016773,23.7573033 M110.086287,23.7573033 L110.086287,23.7288136 C110.086287,21.6863161 111.719816,19.9152542 113.956123,19.9152542 C116.178239,19.9152542 117.79661,21.6575133 117.79661,23.7003238 L117.79661,23.7288136 C117.79661,25.771311 116.163403,27.5423729 113.926774,27.5423729 C111.70498,27.5423729 110.086287,25.7998007 110.086287,23.7573033" id="Fill-31" fill="#24ACFF"></path>
                <path d="M119.938367,20.393578 C119.938367,20.190489 120.085326,20.0309418 120.291262,20.0309418 C120.496876,20.0309418 120.65866,20.1758692 120.65866,20.393578 L120.65866,21.4665488 C121.158836,20.596667 121.996761,19.9152542 123.364189,19.9152542 C125.261121,19.9152542 126.363636,21.1909961 126.363636,22.9599995 L126.363636,27.1797367 C126.363636,27.3971277 126.216677,27.5423729 126.010741,27.5423729 C125.805127,27.5423729 125.643344,27.3971277 125.643344,27.1797367 L125.643344,23.0906248 C125.643344,21.5679343 124.775769,20.5674272 123.261382,20.5674272 C121.791147,20.5674272 120.65866,21.6696377 120.65866,23.2066302 L120.65866,27.1797367 C120.65866,27.3971277 120.5117,27.5423729 120.306087,27.5423729 C120.099828,27.5423729 119.938367,27.3971277 119.938367,27.1797367 L119.938367,20.393578 Z" id="Fill-33" fill="#24ACFF"></path>
                <g id="Group-37">
                    <mask id="mask-2" fill="white">
                        <use xlink:href="#path-1"></use>
                    </mask>
                    <g id="Clip-36"></g>
                    <path d="M36.2966534,12.5765184 C36.5464224,12.6939266 36.8263901,12.7597369 37.1220864,12.7597369 C38.1787287,12.7597369 39.0362479,11.9174876 39.0362479,10.8790431 C39.0362479,9.84059852 38.1787287,8.99865819 37.1220864,8.99865819 C36.0645004,8.99865819 35.2076104,9.84059852 35.2076104,10.8790431 C35.2076104,10.969262 35.2139018,11.0576271 35.22617,11.1444474 C33.9411496,12.042929 32.561758,12.8725106 31.1631776,13.6233051 C31.0065214,13.7061088 30.853011,13.7867496 30.7026464,13.8649188 L30.7017026,13.8673905 C29.5585535,14.4649364 28.4078546,15.0096487 27.2892419,15.4953478 C26.8708632,15.6773305 26.4421036,15.8571504 26.0064235,16.0335717 C24.4017994,16.6820975 25.1501626,18.2924435 26.7201839,17.6590572 C27.164672,17.4801642 27.6116767,17.293238 28.0596251,17.0985876 C28.7504219,16.7982698 29.4254901,16.4883739 30.0823133,16.1701359 C29.7375441,17.7196151 29.5129407,19.5175053 29.4990996,22.2426112 C29.4921791,23.6731374 28.5925075,27.654202 26.9878834,27.8812941 C24.2989348,28.3314619 23.7342808,18.5995586 20.4671516,18.6261299 C17.9990316,18.7410664 16.8527367,27.4295816 14.4264545,27.505279 C11.8117445,27.3038312 12.4012496,21.8007857 12.0621426,19.6633386 C11.9510993,18.963833 11.8130028,18.3486758 11.6582341,17.7894421 C15.0990062,17.551227 19.3133071,16.6233934 23.6789164,15.0213895 C26.8318564,13.8643008 29.6762028,12.4980403 32.0342232,11.0672052 C32.6674536,10.6890272 33.1411968,10.3775865 33.5954366,10.064292 L33.5960657,10.0627472 C35.5385385,8.73418079 37.0399835,7.37996999 37.9645062,6.11227048 C38.0009964,6.11412429 38.037172,6.11536017 38.0739767,6.11536017 C39.1309336,6.11536017 39.9887673,5.27311088 39.9887673,4.23497528 C39.9887673,3.19683969 39.1309336,2.35489936 38.0739767,2.35489936 C37.0170199,2.35489936 36.1598153,3.19683969 36.1598153,4.23497528 C36.1598153,4.56742585 36.2475804,4.87948446 36.4014054,5.15045021 C35.7945989,5.97756003 34.9509209,6.75461688 34.1880874,7.37904308 C31.0656607,9.9342161 26.8356313,11.9715572 23.0066792,13.3767479 C19.1865352,14.7785399 14.6233756,15.970542 10.5059624,16.0796081 L10.5103664,16.0922758 C10.0743717,16.1135946 9.62893988,16.1290431 9.18508091,16.1367673 C9.67801288,17.3982874 10.0633617,18.5254061 10.2870214,19.9352313 C10.3574851,20.3816914 10.3716408,20.8744968 10.3908296,21.3259004 C10.4197701,22.0016155 10.4424192,22.6767126 10.490863,23.3518097 C10.6273866,25.2393008 10.9696393,27.6891155 12.7626911,28.7797758 C13.2260535,29.0612465 13.7432074,29.2228372 14.2855269,29.264857 L14.3846166,29.2722722 L14.4833917,29.2688736 C17.092754,29.1879237 18.2966152,25.6981197 19.107578,23.7157751 C19.333125,23.1645745 20.0780279,21.29006 20.6172018,20.5562588 C21.2032466,21.2121999 21.9626198,23.2334746 22.1658323,23.7754061 C22.8981524,25.725309 23.8733209,29.135708 26.2546196,29.6065766 C26.5883789,29.6730049 26.9306316,29.6782574 27.2662783,29.6248058 C29.2106385,29.334684 30.1889527,27.255941 30.6995006,25.6116084 C31.0131274,24.6003531 31.2905786,23.3116437 31.2959263,22.2509534 C31.3081945,19.7411988 31.5048011,17.5849047 32.1893065,15.1690766 L32.2157304,15.0770039 C33.7039634,14.2696681 35.0726596,13.4277278 36.2966534,12.5765184 M30.8045672,1.09368821 C32.4890922,2.11452154 33.3403199,3.78511653 33.6646421,5.62317267 L33.5822246,5.63120586 C33.3623399,5.83234463 33.1254683,6.03008475 32.8404674,6.24605403 C30.0757074,8.42119527 25.8384428,10.5710011 20.8691727,12.1350018 C14.9392044,14.0011741 9.36407152,14.5947034 5.73141147,13.9693503 C5.3803508,14.3685381 4.86099492,14.6215837 4.28155607,14.6215837 C3.22428464,14.6215837 2.36708005,13.7796434 2.36708005,12.7415078 C2.36708005,11.7027542 3.22428464,10.8608139 4.28155607,10.8608139 C5.16549915,10.8608139 5.90945837,11.4497087 6.12965771,12.2493203 C6.74149732,12.3491172 7.36686346,12.400715 7.94410032,12.4257415 L7.94252747,12.4177083 C8.55531079,12.4418079 9.18130607,12.4442797 9.781192,12.4269774 L9.78182114,12.4303761 C13.3043815,12.3083333 17.0748234,11.475971 20.3205618,10.4545198 C24.0781063,9.27178672 28.2574899,7.48162076 31.4047677,5.11028425 C31.4808938,5.05281603 31.5582781,4.99411194 31.6356624,4.93386299 C30.6491694,2.12039195 27.9382009,1.05012359 24.2580407,3.22093927 C22.4115119,4.31067267 19.6278776,5.94450035 16.7794418,5.7640625 C15.7608625,5.70226871 15.4689411,4.28471928 16.6583321,4.09501236 C18.6866827,4.07925494 19.9169679,3.56976518 21.8757983,2.59126059 C20.687351,2.88756179 19.1557073,3.04729873 18.246284,2.93112641 C16.3157648,2.68487818 14.870628,1.8583863 13.3072127,1.93006709 C10.8696059,2.04222281 9.11650455,3.44246999 9.29706801,8.79288489 C10.9004338,8.75704449 12.5538163,8.57969633 14.183606,8.30780367 C15.9989924,8.00439619 16.3170231,9.74450918 14.3459244,10.0636741 C9.31216739,10.8812059 5.02740271,10.6825388 2.67756112,9.53564619 C2.42181531,9.64502119 2.13807273,9.70094456 1.84048904,9.68951271 C0.784161325,9.64965572 -0.0393842257,8.7758916 0.00150993837,7.73806497 C0.042089532,6.70054732 0.931380316,5.89166667 1.98865174,5.9321416 C3.04403575,5.97168962 3.86852501,6.84607168 3.82731628,7.88328037 C3.82448514,7.95712394 3.81725002,8.03004061 3.80529634,8.10141243 C4.87515059,8.5302613 6.21742288,8.69679555 7.34610181,8.76167903 L7.49898307,8.77002119 C7.37567144,4.69750177 8.29641927,0.394182556 13.2232223,0.167399364 C13.4641833,0.156276483 13.7064026,0.159675141 13.947049,0.176359463 C15.2150827,0.262870763 16.3459636,0.707477048 17.55706,1.0250971 C18.7540007,1.33900953 19.806239,1.43664371 21.035266,1.21387712 C23.9966326,0.676889124 28.0958007,-0.546627825 30.8045672,1.09368821" id="Fill-35" fill="#24ACFF" mask="url(#mask-2)"></path>
                </g>
            </g>
        </g>
    </g>
</svg>